<?xml version="1.0" encoding="UTF-8"?>
<svg version="1.1" xmlns="http://www.w3.org/2000/svg" width="241" height="241">
<path d="M0 0 C0.99 0.33 1.98 0.66 3 1 C3 7.6 3 14.2 3 21 C0.69 21 -1.62 21 -4 21 C-4.30292969 20.18015625 -4.60585937 19.3603125 -4.91796875 18.515625 C-5.33691406 17.43796875 -5.75585938 16.3603125 -6.1875 15.25 C-6.59355469 14.18265625 -6.99960938 13.1153125 -7.41796875 12.015625 C-9.88586294 7.31139213 -12.74650722 5.44615845 -17.6875 3.6875 C-23.76814966 2.40010347 -29.58534121 3.10568193 -35.375 5.25 C-41.67285326 9.44856884 -43.42086157 14.88317831 -45 22 C-45.39538742 25.84525124 -45.42129027 29.63733396 -45.375 33.5 C-45.38660156 34.46808594 -45.39820313 35.43617187 -45.41015625 36.43359375 C-45.37929871 44.09654948 -44.44958586 52.03444944 -39.875 58.4375 C-35.51778271 62.32110672 -31.24339166 64.01445791 -25.37109375 63.98828125 C-21.16562886 63.60596626 -17.14619777 62.82923955 -13 62 C-13 55.4 -13 48.8 -13 42 C-15.64 42 -18.28 42 -21 42 C-21 40.02 -21 38.04 -21 36 C-12.09 36 -3.18 36 6 36 C6 45.24 6 54.48 6 64 C-6.19561642 69.08150684 -14.13210335 71.35889014 -26.875 71.375 C-27.88691406 71.39949219 -28.89882812 71.42398438 -29.94140625 71.44921875 C-41.60604955 71.49402532 -51.02834778 67.68369634 -59.625 59.8125 C-67.45891578 51.77060415 -68.3056332 42.00446249 -68.31469727 31.35620117 C-68.15349867 21.32659613 -65.75970274 13.95748213 -58.71484375 6.64453125 C-43.28888936 -8.14892388 -19.00653751 -6.77056916 0 0 Z " fill="#C61414" transform="translate(189,87)"/>
<path d="M0 0 C4.29 0 8.58 0 13 0 C28.41649854 36.44877876 28.41649854 36.44877876 35.5 53.75 C35.96188721 54.87188721 36.42377441 55.99377441 36.8996582 57.1496582 C37.3143335 58.16761475 37.72900879 59.18557129 38.15625 60.234375 C38.51525391 61.11319336 38.87425781 61.99201172 39.24414062 62.89746094 C40 65 40 65 40 67 C42.31 67 44.62 67 47 67 C47 68.98 47 70.96 47 73 C35.45 73 23.9 73 12 73 C12 71.02 12 69.04 12 67 C14.97 66.505 14.97 66.505 18 66 C16.35 61.71 14.7 57.42 13 53 C4.42 53 -4.16 53 -13 53 C-14.65 57.29 -16.3 61.58 -18 66 C-14.535 66.495 -14.535 66.495 -11 67 C-11 68.98 -11 70.96 -11 73 C-18.26 73 -25.52 73 -33 73 C-33 71.02 -33 69.04 -33 67 C-31.02 67 -29.04 67 -27 67 C-26.66355469 65.73027344 -26.32710937 64.46054688 -25.98046875 63.15234375 C-23.44162775 54.7009298 -19.77533766 46.66574658 -16.3125 38.5625 C-15.62256009 36.93835775 -14.93310413 35.31400981 -14.24414062 33.68945312 C-12.86902162 30.44838806 -11.4913061 27.20844527 -10.11181641 23.96923828 C-6.7166572 15.98986764 -3.35987928 7.99427314 0 0 Z M-1 21 C-2.50855339 24.6006459 -4.00535824 28.20605959 -5.5 31.8125 C-6.14388672 33.34874023 -6.14388672 33.34874023 -6.80078125 34.91601562 C-7.20683594 35.89892578 -7.61289063 36.88183594 -8.03125 37.89453125 C-8.40830078 38.80050049 -8.78535156 39.70646973 -9.17382812 40.63989258 C-10.16519913 43.05516525 -10.16519913 43.05516525 -10 46 C-3.4 46 3.2 46 10 46 C9.26268982 42.31344912 8.53481038 39.53802554 7.15234375 36.13671875 C6.61577148 34.80737305 6.61577148 34.80737305 6.06835938 33.45117188 C5.50858398 32.0831543 5.50858398 32.0831543 4.9375 30.6875 C4.37192383 29.29047852 4.37192383 29.29047852 3.79492188 27.86523438 C2.86716875 25.57521083 1.93541999 23.28690004 1 21 C0.34 21 -0.32 21 -1 21 Z " fill="#C61414" transform="translate(72,84)"/>
</svg>
